<?xml version="1.0" encoding="utf-8"?>
<!-- Generator: Adobe Illustrator 24.0.0, SVG Export Plug-In . SVG Version: 6.00 Build 0)  -->
<svg version="1.1" id="Layer_1" xmlns="http://www.w3.org/2000/svg" xmlns:xlink="http://www.w3.org/1999/xlink" x="0px" y="0px"
	 viewBox="0 0 100 100" enable-background="new 0 0 100 100" xml:space="preserve">
<path fill="#EA9C23" d="M32.2,32.8h15.1v34.5H32.2V32.8z M52.8,67.2h15.1V32.8H52.8V67.2z M100,50c0,27.6-22.4,50-50,50
	C22.4,100,0,77.6,0,50C0,22.4,22.4,0,50,0C77.6,0,100,22.4,100,50z M92.5,50c0-23.5-19-42.5-42.5-42.5C26.5,7.5,7.5,26.5,7.5,50
	c0,23.5,19,42.5,42.5,42.5C73.5,92.5,92.5,73.5,92.5,50z"/>
</svg>
