<svg id="Layer_1" data-name="Layer 1" xmlns="http://www.w3.org/2000/svg" viewBox="0 0 38 38">
  <title>nav</title>
  <path fill="#fff" d="M19,0A19,19,0,1,0,38,19,19,19,0,0,0,19,0ZM32.1,11.4H26.5a26.6,26.6,0,0,0-2.6-6.8A15.3,15.3,0,0,1,32.1,11.4ZM19,3.9a26,26,0,0,1,3.6,7.5H15.4A26,26,0,0,1,19,3.9ZM4.3,22.8A15.8,15.8,0,0,1,3.8,19a15.8,15.8,0,0,1,.5-3.8h6.4c-.1,1.3-.2,2.5-.2,3.8s.1,2.5.2,3.8Zm1.6,3.8h5.6a26.6,26.6,0,0,0,2.6,6.8A14.9,14.9,0,0,1,5.9,26.6Zm5.6-15.2H5.9a14.9,14.9,0,0,1,8.2-6.8A26.6,26.6,0,0,0,11.5,11.4ZM19,34.1a26,26,0,0,1-3.6-7.5h7.2A26,26,0,0,1,19,34.1Zm4.4-11.3H14.6a24.5,24.5,0,0,1-.4-3.8,23.3,23.3,0,0,1,.4-3.8h8.8a23.3,23.3,0,0,1,.4,3.8A24.5,24.5,0,0,1,23.4,22.8Zm.5,10.6a26.6,26.6,0,0,0,2.6-6.8h5.6A15.3,15.3,0,0,1,23.9,33.4Zm3.4-10.6c.1-1.3.2-2.5.2-3.8s-.1-2.5-.2-3.8h6.4a15.8,15.8,0,0,1,.5,3.8,15.8,15.8,0,0,1-.5,3.8Z"/>
</svg>
